<mxfile host="app.diagrams.net" modified="2022-11-21T08:56:41.741Z" agent="5.0 (Windows NT 10.0; Win64; x64) AppleWebKit/537.36 (KHTML, like Gecko) Chrome/107.0.0.0 Safari/537.36" etag="sJMmv2d4uqdMAcq7fJ2u" version="20.5.3" type="github">
  <diagram id="NkGCQQUoN7iNL30MbBBT" name="第 1 页">
    <mxGraphModel dx="2749" dy="1495" grid="1" gridSize="10" guides="1" tooltips="1" connect="1" arrows="1" fold="1" page="1" pageScale="1" pageWidth="583" pageHeight="413" math="0" shadow="0">
      <root>
        <mxCell id="0" />
        <mxCell id="1" parent="0" />
        <mxCell id="l1tBA6Kivxf9OA4HflHP-8" value="" style="edgeStyle=orthogonalEdgeStyle;rounded=0;orthogonalLoop=1;jettySize=auto;html=1;fontSize=14;labelPosition=center;verticalLabelPosition=middle;align=center;verticalAlign=middle;" edge="1" parent="1" source="l1tBA6Kivxf9OA4HflHP-9" target="l1tBA6Kivxf9OA4HflHP-12">
          <mxGeometry relative="1" as="geometry" />
        </mxCell>
        <mxCell id="l1tBA6Kivxf9OA4HflHP-9" value="" style="html=1;verticalLabelPosition=middle;align=center;labelBackgroundColor=#ffffff;verticalAlign=middle;strokeWidth=2;strokeColor=#0080F0;shadow=0;dashed=0;shape=mxgraph.ios7.icons.smartphone;fontSize=14;labelPosition=center;" vertex="1" parent="1">
          <mxGeometry x="130" y="1080" width="18" height="30" as="geometry" />
        </mxCell>
        <mxCell id="l1tBA6Kivxf9OA4HflHP-10" value="&lt;span style=&quot;color: rgb(50, 50, 50); font-family: 微软雅黑; font-size: 21px; background-color: rgba(255, 255, 255, 0.01);&quot;&gt;美术精准对比节点二进制提效方案&lt;/span&gt;" style="text;html=1;align=center;verticalAlign=middle;resizable=0;points=[];autosize=1;strokeColor=none;fillColor=none;fontSize=21;" vertex="1" parent="1">
          <mxGeometry x="1010" y="20" width="340" height="40" as="geometry" />
        </mxCell>
        <mxCell id="l1tBA6Kivxf9OA4HflHP-11" value="" style="edgeStyle=orthogonalEdgeStyle;rounded=0;orthogonalLoop=1;jettySize=auto;html=1;fontSize=14;labelPosition=center;verticalLabelPosition=middle;align=center;verticalAlign=middle;entryX=0;entryY=0.5;entryDx=0;entryDy=0;" edge="1" parent="1" source="l1tBA6Kivxf9OA4HflHP-12" target="l1tBA6Kivxf9OA4HflHP-19">
          <mxGeometry relative="1" as="geometry" />
        </mxCell>
        <mxCell id="l1tBA6Kivxf9OA4HflHP-105" value="" style="edgeStyle=orthogonalEdgeStyle;rounded=0;orthogonalLoop=1;jettySize=auto;html=1;entryX=0;entryY=0.5;entryDx=0;entryDy=0;" edge="1" parent="1" source="l1tBA6Kivxf9OA4HflHP-12" target="l1tBA6Kivxf9OA4HflHP-104">
          <mxGeometry relative="1" as="geometry">
            <Array as="points">
              <mxPoint x="260" y="510" />
            </Array>
          </mxGeometry>
        </mxCell>
        <mxCell id="l1tBA6Kivxf9OA4HflHP-12" value="上传资源A" style="whiteSpace=wrap;html=1;verticalAlign=middle;strokeColor=#0080F0;labelBackgroundColor=#ffffff;strokeWidth=2;shadow=0;dashed=0;fontSize=14;labelPosition=center;verticalLabelPosition=middle;align=center;" vertex="1" parent="1">
          <mxGeometry x="200" y="1065" width="120" height="60" as="geometry" />
        </mxCell>
        <mxCell id="l1tBA6Kivxf9OA4HflHP-13" value="" style="edgeStyle=orthogonalEdgeStyle;rounded=0;orthogonalLoop=1;jettySize=auto;html=1;fontSize=14;labelPosition=center;verticalLabelPosition=middle;align=center;verticalAlign=middle;" edge="1" parent="1" source="l1tBA6Kivxf9OA4HflHP-14" target="l1tBA6Kivxf9OA4HflHP-16">
          <mxGeometry relative="1" as="geometry" />
        </mxCell>
        <mxCell id="l1tBA6Kivxf9OA4HflHP-14" value="" style="html=1;verticalLabelPosition=middle;align=center;labelBackgroundColor=#ffffff;verticalAlign=middle;strokeWidth=2;strokeColor=#0080F0;shadow=0;dashed=0;shape=mxgraph.ios7.icons.smartphone;fontSize=14;labelPosition=center;" vertex="1" parent="1">
          <mxGeometry x="130" y="1190" width="18" height="30" as="geometry" />
        </mxCell>
        <mxCell id="l1tBA6Kivxf9OA4HflHP-15" style="edgeStyle=orthogonalEdgeStyle;rounded=0;orthogonalLoop=1;jettySize=auto;html=1;exitX=1;exitY=0.5;exitDx=0;exitDy=0;entryX=0;entryY=0.5;entryDx=0;entryDy=0;fontSize=21;" edge="1" parent="1" source="l1tBA6Kivxf9OA4HflHP-16" target="l1tBA6Kivxf9OA4HflHP-19">
          <mxGeometry relative="1" as="geometry" />
        </mxCell>
        <mxCell id="l1tBA6Kivxf9OA4HflHP-109" style="edgeStyle=orthogonalEdgeStyle;rounded=0;orthogonalLoop=1;jettySize=auto;html=1;exitX=0.5;exitY=1;exitDx=0;exitDy=0;entryX=0;entryY=0.5;entryDx=0;entryDy=0;" edge="1" parent="1" source="l1tBA6Kivxf9OA4HflHP-16" target="l1tBA6Kivxf9OA4HflHP-107">
          <mxGeometry relative="1" as="geometry">
            <Array as="points">
              <mxPoint x="260" y="1290" />
              <mxPoint x="80" y="1290" />
              <mxPoint x="80" y="440" />
            </Array>
          </mxGeometry>
        </mxCell>
        <mxCell id="l1tBA6Kivxf9OA4HflHP-16" value="上传资源B" style="whiteSpace=wrap;html=1;verticalAlign=middle;strokeColor=#0080F0;labelBackgroundColor=#ffffff;strokeWidth=2;shadow=0;dashed=0;fontSize=14;labelPosition=center;verticalLabelPosition=middle;align=center;" vertex="1" parent="1">
          <mxGeometry x="200" y="1175" width="120" height="60" as="geometry" />
        </mxCell>
        <mxCell id="l1tBA6Kivxf9OA4HflHP-17" style="edgeStyle=orthogonalEdgeStyle;rounded=0;orthogonalLoop=1;jettySize=auto;html=1;exitX=0.5;exitY=1;exitDx=0;exitDy=0;fontSize=14;entryX=0.096;entryY=-0.009;entryDx=0;entryDy=0;entryPerimeter=0;" edge="1" parent="1" source="l1tBA6Kivxf9OA4HflHP-19" target="l1tBA6Kivxf9OA4HflHP-20">
          <mxGeometry relative="1" as="geometry" />
        </mxCell>
        <mxCell id="l1tBA6Kivxf9OA4HflHP-79" style="edgeStyle=orthogonalEdgeStyle;rounded=0;orthogonalLoop=1;jettySize=auto;html=1;exitX=0.5;exitY=0;exitDx=0;exitDy=0;entryX=0;entryY=0.5;entryDx=0;entryDy=0;" edge="1" parent="1" source="l1tBA6Kivxf9OA4HflHP-19" target="l1tBA6Kivxf9OA4HflHP-78">
          <mxGeometry relative="1" as="geometry" />
        </mxCell>
        <mxCell id="l1tBA6Kivxf9OA4HflHP-80" style="edgeStyle=orthogonalEdgeStyle;rounded=0;orthogonalLoop=1;jettySize=auto;html=1;exitX=0.5;exitY=0;exitDx=0;exitDy=0;entryX=0;entryY=0.5;entryDx=0;entryDy=0;" edge="1" parent="1" source="l1tBA6Kivxf9OA4HflHP-19" target="l1tBA6Kivxf9OA4HflHP-77">
          <mxGeometry relative="1" as="geometry" />
        </mxCell>
        <mxCell id="l1tBA6Kivxf9OA4HflHP-19" value="对比任务C" style="whiteSpace=wrap;html=1;verticalAlign=middle;strokeColor=#0080F0;labelBackgroundColor=#E1D5E7;strokeWidth=2;shadow=0;dashed=0;fontSize=14;labelPosition=center;verticalLabelPosition=middle;align=center;fillColor=#E1D5E7;" vertex="1" parent="1">
          <mxGeometry x="539.38" y="1120" width="120" height="60" as="geometry" />
        </mxCell>
        <mxCell id="l1tBA6Kivxf9OA4HflHP-20" value="执行流水线" style="swimlane;fontSize=14;" vertex="1" parent="1">
          <mxGeometry x="468.75" y="1380" width="1351.25" height="230" as="geometry" />
        </mxCell>
        <mxCell id="l1tBA6Kivxf9OA4HflHP-173" style="edgeStyle=orthogonalEdgeStyle;rounded=0;orthogonalLoop=1;jettySize=auto;html=1;exitX=1;exitY=0.5;exitDx=0;exitDy=0;entryX=0;entryY=0.5;entryDx=0;entryDy=0;startArrow=none;" edge="1" parent="l1tBA6Kivxf9OA4HflHP-20" source="l1tBA6Kivxf9OA4HflHP-32" target="l1tBA6Kivxf9OA4HflHP-29">
          <mxGeometry relative="1" as="geometry" />
        </mxCell>
        <mxCell id="l1tBA6Kivxf9OA4HflHP-21" value="AB资源每一帧&lt;br&gt;二进制对比" style="whiteSpace=wrap;html=1;verticalAlign=middle;strokeColor=#0080F0;labelBackgroundColor=#ffffff;strokeWidth=2;shadow=0;dashed=0;fontSize=14;labelPosition=center;verticalLabelPosition=middle;align=center;" vertex="1" parent="l1tBA6Kivxf9OA4HflHP-20">
          <mxGeometry x="21.25" y="90" width="120" height="60" as="geometry" />
        </mxCell>
        <mxCell id="l1tBA6Kivxf9OA4HflHP-22" value="有差异的图片帧移动至太极共享目录" style="whiteSpace=wrap;html=1;verticalAlign=middle;strokeColor=#0080F0;labelBackgroundColor=#ffffff;strokeWidth=2;shadow=0;dashed=0;fontSize=14;labelPosition=center;verticalLabelPosition=middle;align=center;" vertex="1" parent="l1tBA6Kivxf9OA4HflHP-20">
          <mxGeometry x="521.25" y="90" width="120" height="60" as="geometry" />
        </mxCell>
        <mxCell id="l1tBA6Kivxf9OA4HflHP-23" value="启动太极任务并执行训练任务" style="whiteSpace=wrap;html=1;verticalAlign=middle;strokeColor=#0080F0;labelBackgroundColor=#ffffff;strokeWidth=2;shadow=0;dashed=0;fontSize=14;labelPosition=center;verticalLabelPosition=middle;align=center;" vertex="1" parent="l1tBA6Kivxf9OA4HflHP-20">
          <mxGeometry x="751.25" y="90" width="120" height="60" as="geometry" />
        </mxCell>
        <mxCell id="l1tBA6Kivxf9OA4HflHP-24" value="" style="edgeStyle=orthogonalEdgeStyle;rounded=0;orthogonalLoop=1;jettySize=auto;html=1;fontSize=21;" edge="1" parent="l1tBA6Kivxf9OA4HflHP-20" source="l1tBA6Kivxf9OA4HflHP-22" target="l1tBA6Kivxf9OA4HflHP-23">
          <mxGeometry relative="1" as="geometry" />
        </mxCell>
        <mxCell id="l1tBA6Kivxf9OA4HflHP-25" value="统计、资源清理、&lt;br&gt;数据入库" style="whiteSpace=wrap;html=1;verticalAlign=middle;strokeColor=#0080F0;labelBackgroundColor=#ffffff;strokeWidth=2;shadow=0;dashed=0;fontSize=14;labelPosition=center;verticalLabelPosition=middle;align=center;" vertex="1" parent="l1tBA6Kivxf9OA4HflHP-20">
          <mxGeometry x="971.25" y="90" width="120" height="60" as="geometry" />
        </mxCell>
        <mxCell id="l1tBA6Kivxf9OA4HflHP-26" value="" style="edgeStyle=orthogonalEdgeStyle;rounded=0;orthogonalLoop=1;jettySize=auto;html=1;fontSize=21;" edge="1" parent="l1tBA6Kivxf9OA4HflHP-20" source="l1tBA6Kivxf9OA4HflHP-23" target="l1tBA6Kivxf9OA4HflHP-25">
          <mxGeometry relative="1" as="geometry" />
        </mxCell>
        <mxCell id="l1tBA6Kivxf9OA4HflHP-27" value="结果通知" style="whiteSpace=wrap;html=1;verticalAlign=middle;strokeColor=#0080F0;labelBackgroundColor=#ffffff;strokeWidth=2;shadow=0;dashed=0;fontSize=14;labelPosition=center;verticalLabelPosition=middle;align=center;" vertex="1" parent="l1tBA6Kivxf9OA4HflHP-20">
          <mxGeometry x="1181.25" y="90" width="120" height="60" as="geometry" />
        </mxCell>
        <mxCell id="l1tBA6Kivxf9OA4HflHP-28" value="" style="edgeStyle=orthogonalEdgeStyle;rounded=0;orthogonalLoop=1;jettySize=auto;html=1;fontSize=21;" edge="1" parent="l1tBA6Kivxf9OA4HflHP-20" source="l1tBA6Kivxf9OA4HflHP-25" target="l1tBA6Kivxf9OA4HflHP-27">
          <mxGeometry relative="1" as="geometry" />
        </mxCell>
        <mxCell id="l1tBA6Kivxf9OA4HflHP-175" style="edgeStyle=orthogonalEdgeStyle;rounded=0;orthogonalLoop=1;jettySize=auto;html=1;exitX=1;exitY=0.5;exitDx=0;exitDy=0;entryX=0;entryY=0.5;entryDx=0;entryDy=0;" edge="1" parent="l1tBA6Kivxf9OA4HflHP-20" source="l1tBA6Kivxf9OA4HflHP-29" target="l1tBA6Kivxf9OA4HflHP-22">
          <mxGeometry relative="1" as="geometry" />
        </mxCell>
        <mxCell id="l1tBA6Kivxf9OA4HflHP-29" value="验证是否存在&lt;br&gt;有差异的图片帧" style="whiteSpace=wrap;html=1;verticalAlign=middle;strokeColor=#0080F0;labelBackgroundColor=#ffffff;strokeWidth=2;shadow=0;dashed=0;fontSize=14;labelPosition=center;verticalLabelPosition=middle;align=center;" vertex="1" parent="l1tBA6Kivxf9OA4HflHP-20">
          <mxGeometry x="301.25" y="90" width="120" height="60" as="geometry" />
        </mxCell>
        <mxCell id="l1tBA6Kivxf9OA4HflHP-34" value="流水线新增节点" style="text;html=1;align=center;verticalAlign=middle;resizable=0;points=[];autosize=1;strokeColor=none;fillColor=none;fontSize=14;" vertex="1" parent="l1tBA6Kivxf9OA4HflHP-20">
          <mxGeometry x="161.25" y="135" width="120" height="30" as="geometry" />
        </mxCell>
        <mxCell id="l1tBA6Kivxf9OA4HflHP-32" value="" style="html=1;verticalLabelPosition=bottom;align=center;labelBackgroundColor=#ffffff;verticalAlign=top;strokeWidth=2;strokeColor=#0080F0;shadow=0;dashed=0;shape=mxgraph.ios7.icons.add;fontSize=14;" vertex="1" parent="l1tBA6Kivxf9OA4HflHP-20">
          <mxGeometry x="206.25" y="105" width="30" height="30" as="geometry" />
        </mxCell>
        <mxCell id="l1tBA6Kivxf9OA4HflHP-174" value="" style="edgeStyle=orthogonalEdgeStyle;rounded=0;orthogonalLoop=1;jettySize=auto;html=1;exitX=1;exitY=0.5;exitDx=0;exitDy=0;entryX=0;entryY=0.5;entryDx=0;entryDy=0;endArrow=none;" edge="1" parent="l1tBA6Kivxf9OA4HflHP-20" source="l1tBA6Kivxf9OA4HflHP-21" target="l1tBA6Kivxf9OA4HflHP-32">
          <mxGeometry relative="1" as="geometry">
            <mxPoint x="610" y="1425" as="sourcePoint" />
            <mxPoint x="880" y="1425" as="targetPoint" />
          </mxGeometry>
        </mxCell>
        <mxCell id="l1tBA6Kivxf9OA4HflHP-35" value="脚本执行流水线" style="text;html=1;align=center;verticalAlign=middle;resizable=0;points=[];autosize=1;strokeColor=none;fillColor=none;fontSize=14;" vertex="1" parent="1">
          <mxGeometry x="600" y="1260" width="120" height="30" as="geometry" />
        </mxCell>
        <mxCell id="l1tBA6Kivxf9OA4HflHP-76" value="接口发起任务" style="text;html=1;align=center;verticalAlign=middle;resizable=0;points=[];autosize=1;strokeColor=none;fillColor=none;" vertex="1" parent="1">
          <mxGeometry x="430" y="1120" width="100" height="30" as="geometry" />
        </mxCell>
        <mxCell id="l1tBA6Kivxf9OA4HflHP-91" style="edgeStyle=orthogonalEdgeStyle;rounded=0;orthogonalLoop=1;jettySize=auto;html=1;exitX=1;exitY=0.5;exitDx=0;exitDy=0;entryX=0.5;entryY=0;entryDx=0;entryDy=0;" edge="1" parent="1" source="l1tBA6Kivxf9OA4HflHP-77" target="l1tBA6Kivxf9OA4HflHP-90">
          <mxGeometry relative="1" as="geometry" />
        </mxCell>
        <mxCell id="l1tBA6Kivxf9OA4HflHP-77" value="对比任务C&lt;br&gt;场景、画质" style="whiteSpace=wrap;html=1;verticalAlign=middle;strokeColor=#0080F0;labelBackgroundColor=#ffffff;strokeWidth=2;shadow=0;dashed=0;fontSize=14;labelPosition=center;verticalLabelPosition=middle;align=center;" vertex="1" parent="1">
          <mxGeometry x="720" y="940" width="120" height="60" as="geometry" />
        </mxCell>
        <mxCell id="l1tBA6Kivxf9OA4HflHP-89" style="edgeStyle=orthogonalEdgeStyle;rounded=0;orthogonalLoop=1;jettySize=auto;html=1;exitX=1;exitY=0.5;exitDx=0;exitDy=0;" edge="1" parent="1" source="l1tBA6Kivxf9OA4HflHP-78" target="l1tBA6Kivxf9OA4HflHP-85">
          <mxGeometry relative="1" as="geometry" />
        </mxCell>
        <mxCell id="l1tBA6Kivxf9OA4HflHP-78" value="对比任务C&lt;br&gt;所属节点N1" style="whiteSpace=wrap;html=1;fontSize=14;strokeColor=#0080F0;labelBackgroundColor=#ffffff;strokeWidth=2;shadow=0;dashed=0;" vertex="1" parent="1">
          <mxGeometry x="720" y="1030" width="120" height="60" as="geometry" />
        </mxCell>
        <mxCell id="l1tBA6Kivxf9OA4HflHP-92" style="edgeStyle=orthogonalEdgeStyle;rounded=0;orthogonalLoop=1;jettySize=auto;html=1;exitX=1;exitY=0.5;exitDx=0;exitDy=0;" edge="1" parent="1" source="l1tBA6Kivxf9OA4HflHP-85">
          <mxGeometry relative="1" as="geometry">
            <mxPoint x="1320" y="1060" as="targetPoint" />
          </mxGeometry>
        </mxCell>
        <mxCell id="l1tBA6Kivxf9OA4HflHP-85" value="获取&lt;br&gt;关联节点N2" style="whiteSpace=wrap;html=1;fontSize=14;strokeColor=#0080F0;labelBackgroundColor=#ffffff;strokeWidth=2;shadow=0;dashed=0;" vertex="1" parent="1">
          <mxGeometry x="990" y="1030" width="120" height="60" as="geometry" />
        </mxCell>
        <mxCell id="l1tBA6Kivxf9OA4HflHP-100" value="" style="edgeStyle=orthogonalEdgeStyle;rounded=0;orthogonalLoop=1;jettySize=auto;html=1;" edge="1" parent="1" source="l1tBA6Kivxf9OA4HflHP-90" target="l1tBA6Kivxf9OA4HflHP-99">
          <mxGeometry relative="1" as="geometry" />
        </mxCell>
        <mxCell id="l1tBA6Kivxf9OA4HflHP-102" value="" style="edgeStyle=orthogonalEdgeStyle;rounded=0;orthogonalLoop=1;jettySize=auto;html=1;" edge="1" parent="1" source="l1tBA6Kivxf9OA4HflHP-90" target="l1tBA6Kivxf9OA4HflHP-101">
          <mxGeometry relative="1" as="geometry" />
        </mxCell>
        <mxCell id="l1tBA6Kivxf9OA4HflHP-134" style="edgeStyle=orthogonalEdgeStyle;rounded=0;orthogonalLoop=1;jettySize=auto;html=1;exitX=0.75;exitY=0;exitDx=0;exitDy=0;" edge="1" parent="1" source="l1tBA6Kivxf9OA4HflHP-90">
          <mxGeometry relative="1" as="geometry">
            <mxPoint x="980" y="760" as="targetPoint" />
            <Array as="points">
              <mxPoint x="1350" y="850" />
              <mxPoint x="980" y="850" />
            </Array>
          </mxGeometry>
        </mxCell>
        <mxCell id="l1tBA6Kivxf9OA4HflHP-90" value="对比任务D" style="whiteSpace=wrap;html=1;fontSize=14;strokeColor=#0080F0;labelBackgroundColor=#D4E1F5;strokeWidth=2;shadow=0;dashed=0;fillColor=#D4E1F5;" vertex="1" parent="1">
          <mxGeometry x="1260" y="1115" width="120" height="60" as="geometry" />
        </mxCell>
        <mxCell id="l1tBA6Kivxf9OA4HflHP-93" value="通过节点、画质、场景获取" style="text;html=1;align=center;verticalAlign=middle;resizable=0;points=[];autosize=1;strokeColor=none;fillColor=none;" vertex="1" parent="1">
          <mxGeometry x="1130" y="1030" width="170" height="30" as="geometry" />
        </mxCell>
        <mxCell id="l1tBA6Kivxf9OA4HflHP-98" value="旧任务" style="text;html=1;align=center;verticalAlign=middle;resizable=0;points=[];autosize=1;strokeColor=none;fillColor=none;" vertex="1" parent="1">
          <mxGeometry x="1290" y="1175" width="60" height="30" as="geometry" />
        </mxCell>
        <mxCell id="l1tBA6Kivxf9OA4HflHP-106" style="edgeStyle=orthogonalEdgeStyle;rounded=0;orthogonalLoop=1;jettySize=auto;html=1;entryX=1;entryY=0.5;entryDx=0;entryDy=0;" edge="1" parent="1" source="l1tBA6Kivxf9OA4HflHP-99" target="l1tBA6Kivxf9OA4HflHP-104">
          <mxGeometry relative="1" as="geometry">
            <Array as="points">
              <mxPoint x="1660" y="510" />
            </Array>
          </mxGeometry>
        </mxCell>
        <mxCell id="l1tBA6Kivxf9OA4HflHP-99" value="上传任务A1" style="whiteSpace=wrap;html=1;fontSize=14;strokeColor=#0080F0;labelBackgroundColor=#ffffff;strokeWidth=2;shadow=0;dashed=0;" vertex="1" parent="1">
          <mxGeometry x="1600" y="1065" width="120" height="60" as="geometry" />
        </mxCell>
        <mxCell id="l1tBA6Kivxf9OA4HflHP-110" style="edgeStyle=orthogonalEdgeStyle;rounded=0;orthogonalLoop=1;jettySize=auto;html=1;exitX=0.5;exitY=1;exitDx=0;exitDy=0;entryX=1;entryY=0.5;entryDx=0;entryDy=0;" edge="1" parent="1" source="l1tBA6Kivxf9OA4HflHP-101" target="l1tBA6Kivxf9OA4HflHP-107">
          <mxGeometry relative="1" as="geometry">
            <Array as="points">
              <mxPoint x="1660" y="1280" />
              <mxPoint x="1820" y="1280" />
              <mxPoint x="1820" y="440" />
            </Array>
          </mxGeometry>
        </mxCell>
        <mxCell id="l1tBA6Kivxf9OA4HflHP-101" value="上传任务B1" style="whiteSpace=wrap;html=1;fontSize=14;strokeColor=#0080F0;labelBackgroundColor=#ffffff;strokeWidth=2;shadow=0;dashed=0;" vertex="1" parent="1">
          <mxGeometry x="1600" y="1160" width="120" height="60" as="geometry" />
        </mxCell>
        <mxCell id="l1tBA6Kivxf9OA4HflHP-107" value="上传记录B和B1包含的资源进行对比&lt;br&gt;资源下的每一帧都进行二进制对比&lt;br&gt;汇总每一帧的结果" style="whiteSpace=wrap;html=1;fontSize=14;strokeColor=#0080F0;labelBackgroundColor=#ffffff;strokeWidth=2;shadow=0;dashed=0;" vertex="1" parent="1">
          <mxGeometry x="780" y="410" width="380" height="60" as="geometry" />
        </mxCell>
        <mxCell id="l1tBA6Kivxf9OA4HflHP-112" value="&lt;span style=&quot;font-family: 微软雅黑; font-size: 14px; background-color: rgba(255, 255, 255, 0.01);&quot;&gt;需要关联节点&lt;/span&gt;&lt;div style=&quot;-webkit-font-smoothing: antialiased; resize: none; outline: 0px; font-size: 14px; font-family: 微软雅黑;&quot;&gt;通过数据表&lt;span style=&quot;font-size: 14px; background-color: initial;&quot;&gt;配置关联&lt;/span&gt;&lt;/div&gt;" style="text;html=1;align=center;verticalAlign=middle;resizable=0;points=[];autosize=1;strokeColor=none;fillColor=none;fontSize=14;fontColor=#000000;" vertex="1" parent="1">
          <mxGeometry x="840" y="1060" width="150" height="50" as="geometry" />
        </mxCell>
        <mxCell id="l1tBA6Kivxf9OA4HflHP-136" style="edgeStyle=orthogonalEdgeStyle;rounded=0;orthogonalLoop=1;jettySize=auto;html=1;exitX=0.5;exitY=0;exitDx=0;exitDy=0;" edge="1" parent="1" source="l1tBA6Kivxf9OA4HflHP-115">
          <mxGeometry relative="1" as="geometry">
            <mxPoint x="980" y="600" as="targetPoint" />
          </mxGeometry>
        </mxCell>
        <mxCell id="l1tBA6Kivxf9OA4HflHP-138" value="" style="edgeStyle=orthogonalEdgeStyle;rounded=0;orthogonalLoop=1;jettySize=auto;html=1;" edge="1" parent="1" source="l1tBA6Kivxf9OA4HflHP-115" target="l1tBA6Kivxf9OA4HflHP-137">
          <mxGeometry relative="1" as="geometry" />
        </mxCell>
        <mxCell id="l1tBA6Kivxf9OA4HflHP-115" value="资源在对比任务D&lt;br&gt;中的人工标记状态" style="whiteSpace=wrap;html=1;fontSize=14;strokeColor=#0080F0;labelBackgroundColor=#ffffff;strokeWidth=2;shadow=0;dashed=0;" vertex="1" parent="1">
          <mxGeometry x="920" y="700" width="120" height="60" as="geometry" />
        </mxCell>
        <mxCell id="l1tBA6Kivxf9OA4HflHP-118" value="正常状态" style="text;html=1;align=center;verticalAlign=middle;resizable=0;points=[];autosize=1;strokeColor=none;fillColor=none;" vertex="1" parent="1">
          <mxGeometry x="980" y="640" width="70" height="30" as="geometry" />
        </mxCell>
        <mxCell id="l1tBA6Kivxf9OA4HflHP-156" value="" style="edgeStyle=orthogonalEdgeStyle;rounded=0;orthogonalLoop=1;jettySize=auto;html=1;" edge="1" parent="1" source="l1tBA6Kivxf9OA4HflHP-119" target="l1tBA6Kivxf9OA4HflHP-155">
          <mxGeometry relative="1" as="geometry" />
        </mxCell>
        <mxCell id="l1tBA6Kivxf9OA4HflHP-119" value="二进制对比" style="swimlane;whiteSpace=wrap;html=1;labelBackgroundColor=#D4E1F5;strokeColor=#0080F0;fillColor=#D4E1F5;" vertex="1" parent="1">
          <mxGeometry x="750" y="350" width="440" height="250" as="geometry" />
        </mxCell>
        <mxCell id="l1tBA6Kivxf9OA4HflHP-104" value="上传记录A和A1包含的资源进行对比&lt;br&gt;资源下的每一帧都进行二进制对比&lt;br&gt;汇总每一帧的结果" style="whiteSpace=wrap;html=1;fontSize=14;strokeColor=#0080F0;labelBackgroundColor=#ffffff;strokeWidth=2;shadow=0;dashed=0;" vertex="1" parent="l1tBA6Kivxf9OA4HflHP-119">
          <mxGeometry x="30" y="130" width="380" height="60" as="geometry" />
        </mxCell>
        <mxCell id="l1tBA6Kivxf9OA4HflHP-132" value="非正常状态" style="text;html=1;align=center;verticalAlign=middle;resizable=0;points=[];autosize=1;strokeColor=none;fillColor=none;" vertex="1" parent="1">
          <mxGeometry x="790" y="700" width="80" height="30" as="geometry" />
        </mxCell>
        <mxCell id="l1tBA6Kivxf9OA4HflHP-137" value="不处理" style="whiteSpace=wrap;html=1;fontSize=14;strokeColor=#0080F0;labelBackgroundColor=#ffffff;strokeWidth=2;shadow=0;dashed=0;" vertex="1" parent="1">
          <mxGeometry x="620" y="700" width="120" height="60" as="geometry" />
        </mxCell>
        <mxCell id="l1tBA6Kivxf9OA4HflHP-161" style="edgeStyle=orthogonalEdgeStyle;rounded=0;orthogonalLoop=1;jettySize=auto;html=1;exitX=1;exitY=0.5;exitDx=0;exitDy=0;" edge="1" parent="1" source="l1tBA6Kivxf9OA4HflHP-145" target="l1tBA6Kivxf9OA4HflHP-160">
          <mxGeometry relative="1" as="geometry" />
        </mxCell>
        <mxCell id="l1tBA6Kivxf9OA4HflHP-159" style="edgeStyle=orthogonalEdgeStyle;rounded=0;orthogonalLoop=1;jettySize=auto;html=1;exitX=0;exitY=0.5;exitDx=0;exitDy=0;entryX=1;entryY=0.5;entryDx=0;entryDy=0;" edge="1" parent="1" source="l1tBA6Kivxf9OA4HflHP-155" target="l1tBA6Kivxf9OA4HflHP-158">
          <mxGeometry relative="1" as="geometry" />
        </mxCell>
        <mxCell id="l1tBA6Kivxf9OA4HflHP-155" value="是否有差异" style="rhombus;whiteSpace=wrap;html=1;fillColor=#D4E1F5;strokeColor=#0080F0;fontStyle=1;startSize=23;labelBackgroundColor=#D4E1F5;" vertex="1" parent="1">
          <mxGeometry x="930" y="160" width="80" height="80" as="geometry" />
        </mxCell>
        <mxCell id="l1tBA6Kivxf9OA4HflHP-158" value="不处理" style="whiteSpace=wrap;html=1;fontSize=14;strokeColor=#0080F0;labelBackgroundColor=#ffffff;strokeWidth=2;shadow=0;dashed=0;" vertex="1" parent="1">
          <mxGeometry x="630" y="170" width="120" height="60" as="geometry" />
        </mxCell>
        <mxCell id="l1tBA6Kivxf9OA4HflHP-166" style="edgeStyle=orthogonalEdgeStyle;rounded=0;orthogonalLoop=1;jettySize=auto;html=1;exitX=1;exitY=0.5;exitDx=0;exitDy=0;" edge="1" parent="1" source="l1tBA6Kivxf9OA4HflHP-160" target="l1tBA6Kivxf9OA4HflHP-165">
          <mxGeometry relative="1" as="geometry" />
        </mxCell>
        <mxCell id="l1tBA6Kivxf9OA4HflHP-160" value="标记对比记录C对应资源为&quot;上轮已确认&quot;" style="whiteSpace=wrap;html=1;fontSize=14;strokeColor=#0080F0;rounded=1;labelBackgroundColor=#ffffff;strokeWidth=2;shadow=0;dashed=0;" vertex="1" parent="1">
          <mxGeometry x="1463" y="170" width="137" height="60" as="geometry" />
        </mxCell>
        <mxCell id="l1tBA6Kivxf9OA4HflHP-145" value="表示该资源在对比任务C中未修改&lt;br&gt;需要标记出来&lt;br&gt;不进行人工检查" style="whiteSpace=wrap;html=1;fontSize=14;strokeColor=#0080F0;labelBackgroundColor=#ffffff;strokeWidth=2;shadow=0;dashed=0;" vertex="1" parent="1">
          <mxGeometry x="1190" y="155" width="140" height="90" as="geometry" />
        </mxCell>
        <mxCell id="l1tBA6Kivxf9OA4HflHP-162" value="" style="edgeStyle=orthogonalEdgeStyle;rounded=0;orthogonalLoop=1;jettySize=auto;html=1;exitX=1;exitY=0.5;exitDx=0;exitDy=0;endArrow=none;" edge="1" parent="1" source="l1tBA6Kivxf9OA4HflHP-155" target="l1tBA6Kivxf9OA4HflHP-145">
          <mxGeometry relative="1" as="geometry">
            <mxPoint x="1150" y="200" as="targetPoint" />
            <mxPoint x="1010" y="200" as="sourcePoint" />
          </mxGeometry>
        </mxCell>
        <mxCell id="l1tBA6Kivxf9OA4HflHP-163" value="没有差异" style="text;html=1;align=center;verticalAlign=middle;resizable=0;points=[];autosize=1;strokeColor=none;fillColor=none;" vertex="1" parent="1">
          <mxGeometry x="1050" y="170" width="70" height="30" as="geometry" />
        </mxCell>
        <mxCell id="l1tBA6Kivxf9OA4HflHP-164" value="有差异" style="text;html=1;align=center;verticalAlign=middle;resizable=0;points=[];autosize=1;strokeColor=none;fillColor=none;" vertex="1" parent="1">
          <mxGeometry x="800" y="170" width="60" height="30" as="geometry" />
        </mxCell>
        <mxCell id="l1tBA6Kivxf9OA4HflHP-176" value="二进制提效方案" style="swimlane;whiteSpace=wrap;html=1;labelBackgroundColor=#D4E1F5;strokeColor=#0080F0;fillColor=#D4E1F5;" vertex="1" parent="1">
          <mxGeometry x="40" y="100" width="2240" height="1230" as="geometry" />
        </mxCell>
        <mxCell id="l1tBA6Kivxf9OA4HflHP-165" value="" style="sketch=0;outlineConnect=0;fontColor=#232F3E;gradientColor=none;fillColor=#2E27AD;strokeColor=none;dashed=0;verticalLabelPosition=bottom;verticalAlign=top;align=center;html=1;fontSize=12;fontStyle=0;aspect=fixed;pointerEvents=1;shape=mxgraph.aws4.rds_mysql_instance;labelBackgroundColor=#009900;" vertex="1" parent="l1tBA6Kivxf9OA4HflHP-176">
          <mxGeometry x="1690" y="51" width="98" height="98" as="geometry" />
        </mxCell>
        <mxCell id="l1tBA6Kivxf9OA4HflHP-167" value="资源添加标记" style="text;html=1;align=center;verticalAlign=middle;resizable=0;points=[];autosize=1;strokeColor=none;fillColor=none;" vertex="1" parent="l1tBA6Kivxf9OA4HflHP-176">
          <mxGeometry x="1570" y="70" width="100" height="30" as="geometry" />
        </mxCell>
        <mxCell id="l1tBA6Kivxf9OA4HflHP-168" value="gamepic" style="swimlane;labelBackgroundColor=#FFFFFF;fontSize=14;fontColor=#003300;fillColor=#FFFFFF;" vertex="1" parent="l1tBA6Kivxf9OA4HflHP-176">
          <mxGeometry x="1806" y="340" width="390" height="275" as="geometry" />
        </mxCell>
        <mxCell id="l1tBA6Kivxf9OA4HflHP-169" value="" style="shape=image;verticalLabelPosition=bottom;labelBackgroundColor=default;verticalAlign=top;aspect=fixed;imageAspect=0;image=data:image/png,iVBORw0KGgoAAAANSUhEUgAAAeMAAAE7CAYAAADuGul6AAAgAElEQVR4nO3df1Rc9YH//6e7frTV/SpiCGbVaBTEGqnaMrAJfmPW1DRV0kM0kM00xsOm20OABPkkR93PVyWo+6n1mCIJkJx+m+Wo2emGWOFrUGPSuJqTIZ8wbE1FrDhY+snGRiAStK2fas8u3z/unZk7M3d+AAM3Ma/HOTlhZu6P971zua/7/nEv54yNjY0hIiIijvkLpwsgIiJytlMYi4iIOExhLCIi4jCFsYiIiMMUxiIiIg5TGIuIiDhMYSwiIuIwhbGIiIjDFMYiIiIOUxiLiIg4TGEsIiLiMIWxiIiIwxTGIiIiDlMYi4iIOExhLCIi4jCFsYiIiMMUxiIiIg5TGIuIiDhMYSwiIuIwhbGIiIjDFMYiIiIOUxiLiIg4TGEsIiLiMIWxiIiIwxKE8VG25eSw7Wj0ezlR7yc7/xQ6uo2cnBxyqvdwMt50H+1hXU4OOTnbmK6iiYiIxHJu3E+PwhWbF7NxRQ7vbvayNe8w627byD7z42dW5PBMjFnv39XHWoBqY7p3N3vZesVuclbEmiNC9S765h+OP/2Sp/E2LGVGcksUERE5LcUP45tvZunNW5nHOgo3FJITeD8Qgke3GWEZDMWjbMtZEQrom29m7c19zCOHFRvq2LP5BuP96l30Vdxs/BxYhvW9UAHo61tr1GRv28g+7mdX31qsUx1tzqGwwRL+VsH5YnmGFTl2Yb+Yp9/cytLL4u4dERGRlIgfxqYZRVvpKzJ+PtmxjcN5Rm30aKcZZHv3cfijpSzlP3gXgPuZZ0nMmyv66KsAjm5jY8SyA8u4f35kEFt8dNwI1CVXcEUyBQ64bClb+5baLC92uIuIiEy3JAdwHWVbzjr2fAQzitay9DI42bGOFQ3AksUsZh8bXzwKl13JDcDizSVGwB3dFrP/9mTHOnJycoxlYDRl5+QE/oX35QZDP+dKNUmLiMiXToKa8Un2VBeycS+w5H6e/ugkEN5vfH/ZVtaWbSNnxQrWzfayta8vOPfR4++yeO8zFDZfadMEbVi82cvWokDERjRzm+8dNgObhhXkNITPuybBBp7sWEfhhlgN1fbN1Pfv6mOtqssiIjJN4obx0eZCNu4NNeUebc6JCkMjtNbi3fyu0a+8ITT9zUVbqWUd+zaYQW3TxrxvQyE5G2KX4WTHDp7BGpChC4QbrpgBx+JvoLWJPUjN1CIichqJ20x9c0UffZawuvnup1kMwP3s6uuz1GjN0Ovz8vSSZ1iRk0NO81Hz/VqeXgL79h+2ba5evNlLX1+f+W8X94d9epLD+/fBkqcpCSbmcY7vBVjMFRpgJSIiXwJJDOCyNFUHxRqFDETVNmewtKGPpQBHt42vdEd3s3Ev3L/LcvvSR+YgsSWLmXcZHI83e3OoT9penO2wHd0tIiKSekmNpg6I25ca6zaij/aw7rZ9LH5zKzbjmuM2Ux/tNG55WntzdF/y/WVGQMcL4+Ao7uACzduoWMziJfvYtzdimz7aw7ofQq3uXRYRkWk0wcdhjuMpXB8dZ5852vrkcePGp8WzrzCbtY3m6V3VxqT37wo0V5t9zhV9Ru30oysoeTPQRA6Rt04lV+RtwQeI3L9rK1v/0VjeM52BDTjKtts2sm/vRuo64j6/S0REJKUmFsYf2d9PbMcawMePGfXmG66YYT6SMvJxlDEen3nZDGZcNo/FS4yX9+8a36Crkx3rop/kddlSajcvhoYd7PkovOa971i8+raIiEhqTSiMT3bvM5ujjcFasWvH5gAs4IYrjpu3KC3mistOsueHG9nHM+yw1kI7D/MM8MyK6GdGn+yoM/qtq3eN47YjI9wLN+xj8eZdPL0k/FNjcNk+Nt4WCGJjYJr6ikVEZDolEcbGAKy+PqNv1e6+3WdW5JBz2z4Wvxk++jo08vl+5nHYDLwbOP5iYEDYYhbnWXpn56/Fu3kxRIb00W3mOu9nV0RQGiO+7fuyjzav4JklT+Pt62NrkfW+qkAzeyEbc54OhvR4a9wiIiKpkPQArrCRyRF/oCEQ0Btvy2GjdTT1UTOAl8DhFrMRuBrmzX6adznO4jdLWHrZSfb0QeBWpRk3r+H+DRB87mWwrzfxPcGBJvHAk7pmVPQRegRJ4MIAnlmxwjLXlSxt6GNexzoKV+TwjO49FhGR6TYWx/CeqrHrrrsu+K/5rXhTj42NjQ2PvbT+urHrrqsae+nE2NjwiZfGmq+7bqxqz7C5vOaxl05YJn+rObT8JpuFn3hprOq668auu655LNaqI8sYc9rgsuJtR6D8McojIiIyBc4ZGxsbc/qCQERE5Gw2wVubREREJFUUxiIiIg5TGIuIiDhMYSwiIuIwhbGIiIjDFMYiIiIOUxiLiIg4TGEsIiLiMIWxiIiIwxTGIiIiDlMYi4iIOCzpv9okIiKngf17oaYc/vAJjJ0D6M8LpMQ5wAUXQuUGqKyZ/tXrD0WIiJwh9u+Ff/gejP2X0yX5EjsH1lbDQ7XTuta/3LRp06ZpXeOXwKF3P2LH/9fJ250HWHb4m/y37p/o/yn+/78fzeFvLhhgZsYMfTcO/M87bRw7/2vcODP+78boJ5/yi9ff5NXXDvA3+d+kofEn+j/O/z/b9SK5N34t+ZPPXbfBn79IfnqZmH/vgvsfnNZVqmY8ASX/7wcc/uxq/pO/dLooZ42v8ie+ecGH7P6Ha+NOp+9mapzHF9x9oY/67xfGne59/wdce83V/OVfav8n44svvqDzf3WzcMH85Ga46pLQzxU18PflkJHgCkmS878OwYqlodf/+9S0rl4DuCbi/4zqZD/N/g9fIfdPXUlMqO9mKnzBebz6x68nnO7UqVEF8Ticd955fOPm3ORnOMfy89pqBXEq/c2thHbwOfGmnBIKYzljeP6ryOkinNXcf9HhdBG+lH7eNo79am3HvOjilJdFxiL+nz4KYzljKAycpYuhqXHPMu1XSRTGg7CmBYYSLOTFFmh4J/q9FwcntsyhN2DNG6HXDQ0wy+6fZTkvtthPE1kuBmFNA3Qn2CY5/SgMnKWLoakxrprxVBlohKsXwYDdhx9A0SVQ1DjdpYKfLEq83oHG+NP8ZBFs3Jfack2B+PcZZ8IP58BNbXBi2fgWfLcLZv0r8Hdwd2bEh5/CTQ3hbzXZTRfv83dgli98mocWQfWNodcvtsB/mD83NMCVfwd3j28zzjjl94D7U1iw3/i59gqbiU7BrOeip7d7vbscjm2HDTHWt7scvj4MOT9P9ZZEM8Jg5dSvaJIOloNnO2wHDlZDts00hw5CyVvR00e9vgP6Loqzf++AEzeApyH2d5Qqnv8q4tFULGjES31VE764E7mobKyhMB1GO+upaIw/NYCrqpma+Wmx1/k8lFUXEjXFiJf6N2dSsyzim+pvp35oYexlpsiU1Ix/sgj+5w3w263JTb+/DW5cBnPslvUD6AHOaYOBquhpNl4Cu8dRtpJd8PRi4+cD6+Dvd4Z/fs4qo9wDjfA/fwljv4SrHrGfH2DOd4A82Hhd+PtnmIQP/Zi5EJoCtdxXoPLTGBMegCcPALPN4L4RTgCzOuHuyCC/CH5VBpFDD4begJt+FXo961dw500QHDYyCGtegR/azIvNNKeDg9XAu6FwA9i8GtzmoEi/9bNboG8BXATwOdRZTsgnboiefvNqcJ0IX3Ykf8S6uQX6LONFsi+Ewd9YlvVzWFQOm/fbnNwt5QhzBZyoDn8rEA7l90DthWb4W+c/ZXnvWsu2xpGyMLCW4/Pwde8uh1vPN3627rvg+9bpb4G+AqiPV/bPo7dt82qYHXhxC2R+Btsty1rwAfTdA9ttAthaPit3Nbgtrz89Hgrwg9UwaIa/df5DlvcyP4h/HEEKL4bSC6nxWEZl97fj7pmLJzIMTWnza/CEDTb20+7uZa6n2OZCx0+7u5bWwMuCSpqr59L7fBO+I+BzN1neN4M5vZCyzHrqO8uSD97+dtwvZ9BcXchwm5vaQBiV1BnbMeKlvmqYItsyhvt5Wwdl9zl0kfmTRfBPvzRfWEIvLBCBN07B/kWwrhE6qsKX8fQpeHoc63vf8nrRVvjfW4F9cPUey8XDPvjbNvi3U6HwH2g03quMDNxroWMXXL0CruuGH8S/4+J0ldQTuO4OBFuZfc3yxRb4D1d4rRQwAvlG4/PIEH8lomYcCPETC41Q/kdgx0Ljo4ZfMbXegVkHomvWkxEIXH/E6Pjye4yT5qwGguEbCL6DC+Bt8wS5eTXUmCfkg9dCXYNZ0yqH8v3GybsIyAmcQCOC8sQNcOh44nK6LgDPW5BtCeiSI9C3GjY8ZzODJUTDamxmyOdEzOO+wghmboE+Sw1udzkcvMMIAM8scN8B26cjDMxyHLLZz5tXw62fwazthH03/nuMsJpltjYEyro5F94+Yh/ktdVQcxzsemqsyq+BwRMRb+6HjtWw+xYosZnHGqLWVovNq2F2T6jGDUZ5M4/DAnNbvz4Ms36OcbwUQPlb5vddYB5XccqasoshG67MjBifjOJtqKDpiM1H7tbw12bAFns8FFtqtf62erjXg6c6sLwWuDe8hpw2v4aitnq8I0ZtHGB0aABYaF+mlweovLeYNPz0Zjbj8RhL87e5qe9spmZ+IWVV9bR0jiYMeEf7jH9wAO5ohL/ti65FDzTC3z4CO8xA/MFP4KUpqoEe2APLA7cV7TOCdYcliPkA1j0S8Z7VYtixCupfhR9U2U1w2osbxt1tsPSY8fOeasgDGlpgZbyaKdFhCpZmZrN52VozbmjAvi3vDLbhOeMkuXk1uCzvL8qAQ4ETy1vQkQuuO4yX2aeMkybAhh4oKoDyGMvfXQAd1jPnfiMsrLXl8nug9gab2mzgAuGOGLv9Lch5y+4D4ALoqzZr70TXiE9UE6oN3mEEwQaM0OF4KDhKPoATs8xtPRH6OZ6UhMEMuOhUKLCs+3n2Bfbfjd9uOXdA0R/D91NJIMQtteWD1UYwRz7L55D5/6IMwKa1KXghdEf0Z18vgBMLzBcRNWIWGJ8FavWLMkLHiesS6Agsdz8cuhYW3QLb34K3C0I/x+JcN0EpdWE1TLuasZ/2htBIFH8PFC1LY7Sznl7m0Frlpsm6yCNumiKWm72sJrnT0EgvXbOLqEkHyKbQUmvPyAz9tqddnw/P9zI636Zp3MLRmjEYTdTLHzSajOtzjJpvIIj/RzcsCkx4LXR0Q1EebLQ0FVtDe1GslcTzAdTvhBrzYmDjCtixC9ZcEj2o+e8t91n/c8T6Fm2d4PpPD3HDOG+Z0dTcYKnFrpwD//hGeNBG+Rp8/V9h1oARugAMw5p/hVfMl4E+44cWQfXfwVBmePiD0UzNbHiI0DJeAX4Yr9DJTBPJrMFPh8zzwWc54fn/CEUXGWHw6R8tE74FgwuMsPQMh07o/ncBs6YWVWu6xRhncdElcBDwEL+ZencSrTmZ58Mx6xufQc52kqoZb54VqvVlXxhRAzwJn15rbPf2/eCvhs3E7/dMRRiUX2Tz5vnGfs48P7omm3mRUWt2V5sXNZ9D3c+NFop6m2rk5ly46HyoLcdI43jN1HcYNWnbsI9T3rePJFkzvsXo4jlg/pz5efi6jn0GLvOBZgeGoeYaIE4Yp6ZmHNGMHNSKO2oMjhGWhdXFRrPwo8ZcrqpK5gBDnfXUmn3JpY95KK42o3TES8fuVny7W43a8l3DtGI0H/vb6hm6rYbCdCPQQ8sN9VFb+QaHISJKR9/rgkz7frDhQR9zcs3nGqfPJZ8WekcKo5ZrNWU147GdcNVO+8+CQfYBvPRLqFkM7DE/3BcnXGME8mQMvArvEArakl3mer8BbxwwasIbL7E0QZs1Zz4wytFjLuf/idFE/f4v4b33gdO7P3ncfyhi5kK4qwUaZsRu0p2ZCdXVQAMcCpzdMmBHNdE1Y0sfbyD8u9vAmx1avvVigLT4tfKkpzmDbP95+Mn8YDl4bPoTy6+BwVNG6PlmmTWmWH38d8CtcT4OijiBWy8YLorsK45okp99AQyeTLQCw+DnMPsWpjwMtv8GahaEgr/8mlAt33cKiiyB5LoEMLd3geUYLL8H+MC+SdcF+D8HzxGoWR2/mXr3tfDp54nLPBjxJR2z7KPIvuJD1glnwEWfJe6LB9j+KdQmaJ1ITc0422hGDr4exdvwBjOrE/StZhXj8YTmwqyNFkY9uGoU7/NN+Aoqab4XWp43395dizvQr7s7UEsupS6rGI9nodF0HbGcXp8PjszBvyw7rGxhgWvV307tsUqag2Nk0pg520fvCBAnjKesZhzo941n4FV4Z5URfgcCby6G357CCL0fwb8diGgavhY6bJ5OZa21xhNZi2h6BFhl9B1H9inHZSnHxljr/gDeA97pS3ahjpnQX226+05Y0wkkqE1Wmyfqhk/hysCbN8JDB8JHU995U3h4Hhs1BoNdmRE+grrbD3eOGrc97YjxiOKhJE/+Z6rNq2HwCHAPnDBHSvvfhQUnoSYDOoaNQNjwXOJm6kMfwNftasd3GDXrBUDmcIyTudksPp1SEgZvQf01RkuDG2Ogk9+84Nj+HLiqQxcYh44TfbVyC9RcaLQIBEdKm7Xf7NUYV5PXEmzqj9tMPQwdF4Z3YwTsXg0HnjOamX0xRlKXJJOyKTQlfcb9b9A0ey6eWKOdLTXiZJSuKWVgdimuYxEflMSoGccy0ksXldRVddHbD9lZ8dfrb3NTSx2e6vH3tznaZ7y/zRytbKlBX/UI5D4OHddFT7/xEiBGjTiy2dhOZNgeWGeMxLZ94NUvYaE1ZPPgnxIsP8oH8M434MZ3jdu2bPubTw8T+xOKmbAjYoT0lZHjLwI14DvhbaDQEqorbzLes23qHoSXPzX6qL0N0LDIDPVBWHMM7roJXoaopuXAILMXW4BPzcC2tCQFLgwSjqiZYpE1wEDz7XYiaiY2zYoEBm29BQcLIgZ1YTRf+q8JP7nHbKbeDyW3QF9EGG9ebQ4we85oBn3bMnAm0GQaa0QvEHbblFWgOT5oHLW2gFSFQVhLwx1w4sLQa2sNeHe5MdLcanMuvN1j1o7fDR/UNfhHY18ftO7TOM3UJeagsTDmwLG3Dxp97rWfgfWwyDwfjsUa1W6y3jYVZOn2CBhPywVMRZ9xaCBUzCcPRNaIIfEtR2awh4lVM46YzN/mpjfXw8KhLnCVkX09dLzph6zYIRuYx5MgsGNxtM/4BwfgB+bP1j5jACz35gZuQYq8rWgi67N69V3458dhTUTNdeB9EjdTJ2HgfeAG+O67sP+D03qkdeIncA0awRlp6I3QgzUqgVsj7hHu9sOdc4BfwysXwex3jId0vNhmDO76IbCmzXgAx6yG0ANCujvhldnGYLHqauCA8YCOF18BbjKaVoPeCX/wx9AbRll+VQ1f/1X4cuN6J8YDQqbAgWG4NTBy2ezj9e0H9oP/EmMELRgnfSJqpbsLLANwIu23OQGPU/YNxuCvWWat+laMwUKBQWTZF8LbvzFqZHXHjVpl4BioO44RPJbyHfsMMs0WjO2/Aa4wmofBaKL1W/qQM88Pb361MxUPnTh4AxzqiX6//B5jZHXYPjUHbcXazyWTvdf6fKgtgPoGYx0Hb4BPLzBGnQPGBdop2LDf2Od+jNHpge/Aj3HxFSzfSWP+wPfnOwVF94S25VbggDlt+UURYxZspPahK8Yo6S5XWcz+VH9bPd4RjHB1u3EH/j3aiq+xIvTa7cbtNqe10dvTSuljHjweD3UlLiobPXg8dZSGTeWjqcpNR2YzxeleWhrnUDQ/DdILKaKW9v7QlBmZLgaGRo0XI146qKPYNohHGTrmIiNOEzWc7k/gMmun9TnGH05IyShq8yEiG/fB0wfgmhQs0mqgMdTk3vSIMUr7jmXw0qspXlFqxa8Zm7f8NN0ESxtCI6rB6Ds+EWcQl/cY3DUffvavxiCtnx0wRlTP7gzNv+MdmDUKe+bA0k64ez5sO2asJ6C62ugzfnJ26LanMGb/cOAe5T3Vxuvqaihsg6WvwK0JRn9Pp+3mfbzBptCDoQE4C941RsKeWIBRw7Sc3MvvMW5LCXS3RA7qilXDzI43mtpi9gWhGlX5PVCbYdTouAdqV8P2HuP3p+Ot0HZwT2g7Pj1u3hJkEVYbtmkett6WlX3KaBaPJ1U1Y+uDOKy1yLCHpNjU8A/eAB1mzdluUJet8+OPpg4yR3kH1hm4Pz1nv/Hz7pNwLJdgHzYYtfiD1UbLONg8+COiNrwhohne0xA6bhZlhLeC2EldzdgYxDUQ7yEdjDJ0bA4z04ERQvfvWmrFo531vDGzhuIsI7jD6tZHmqg4AhS4YHcpRXEfWjTM8BFzABde6qu6yG+ssYyyrqPX7ab9MQ/FWZA2cw6+HnNg18gwvt1NoVo3hO5hHumli3zKEoSx46OprXoeMZqpz1kFv11KWO00YCDGrVDjdV2cWupv+ozm8/E2Uwdq8P9sjgh/4Rvwb4thzmK4/hI4UHXajriOf2uT3wjSu2+Eu79m1GJfiTcDGPcLZ8OTF8GeX8PLN8GOGwn2Lw9dAq/8yhwpjdFfnLcwNHDr64tCgY/53pOBB4kAM2fAKwdC8z+0yByFPWrUiK2hGxgQBhH3Os+GHdYyT+Foart7dWP29cXph40cxBX5OpZED/2ILFOwmTqw8J8bfaGvXAOD7wKr4UTg9+OUeb+0OZ91MJenATaYgRUYLBWrzJtnhdeSY0lVGFiboq0S7dPI+WItJ0yih34E7Deboy3N1IGLhAUH4eA1kHkB1PeE31p26KB5O9wtxvuBwVyBh354jhv3UW/4eZwym6Ou6xO0TKTkYmgkEHYeiq0hlT6XfCqocFtuQCqopDnR8oa81D/ahA8XlbdZ3g8EYn879a6F4YPD3mvH3dhqWX42xZ4ajIsEI4jDa+vZFHvqaHfX422soTBrIZUvtxj3JNs1o5tG3zOauhM9RsTRmnHk07NyH7dvprb6TR/cmDOJlX5gjJ6usYaxZeR3CfDqzvCyJNNM/U95cM43jAeUzAE2PgLLd4UuJL6zCtasm/xFxBTR3zOegJIt/86hsW86XYwzQtgTuOyM4wlcF/N73qv+v+JOo+8mmvUJXHaSfQLX2r/4GY+ui38xdKTr3ynIPwv2v+UJXLZhO44ncLU8+7Pka8bWv2cc7+/tjvdxmGDfZ2w3mvoni+D9By1N1mY4/o8kn34VWbbImrbdfctRYWwtl3mL0zuW0eOxtj/eADRIfv9OAYXxBOiE74xkwkDfzdRJ5mLorAnjFPr0099z0UXx92tQZFiEPc5ynCIHY0WFMfbPnT7nG/YBPZ5yxBt5bReYgTB+P88cfW29besDKPoBbDXL9JNFxiM8o27JCkybB9fHCGQHw3hio6lFHDCVj2OUxM6UP9RxpplUn7F1NPRUSPa506ksx9M2IRh8z64810KHOWLrwLoELQJT8NCSFFEYT8BFXz2XC//0GX/8rwucLspZ4zy+4PsX/gKI/+fD9N1MjQv/4jP2nr804cXQueeeyx8++4y/ukD7Pxl/+OwzSu75rtPFMJzhj5MEjG34baKJYjy0xGEK4wlYWTibizrfovezDGaf8zuOjf21/p/i/+deMEzOvG/ru3Ho/0++ciWbCv8TsHkQhMXVV82mu/soMzNm8OHvfsflf/3X+j/O/1fNvpKh4ZPcOr8g+RPQOUQ/s1lSx6H9qz5jEZEzhbVP0/sruCJqXL5M1Oefw3WXhV5rAJeIiNi6Zgb853+aL1RFTq2I/TnNYZz4CVwiInJ6WLHK8kJBnFqW/ZlfOO1rV81YRORMsu4f4KUXzBeqHafWOfDNfHhx7/SvWWEsIiLiLDVTi4iIOExhLCIi4jCFsYiIiMMUxiIiIg5TGIuIiDgs7uMwR0ZG+POf/zxdZRERETkrxQ3jP//5z1x88cV88cUX6A4oEZFof/rTn0hPT3e6GHKGS9hMrSAWERGZWgnDWEEsIiIytTSAS0RExGEKYxEREYcpjEVERBymMBYREXGYwlhERMRhCmMRERGHKYxFREQcpjAWERFxmMJYRETEYQpjERERhymMRUREHKYwFhERcZjCWERExGEKYxEREYelIIx72JGXx44eu492kJe3A7uPQp8/wN5By3uDe3ngob18PJ71De7lgXjrCc4Xmqbnp3nk5SX499DeuEuM5YsvvuCLL76Y0LwiInL2OWcszh8sHhwc5Ctf+Ur8JQx+zMeZv6M9r4y+J54g5+GH2ZZgpWtbulmTG3jVw468Mgi8N7iXB+rhwSeXcGnMJXzM3oe+zesLX+OpJZfy8d4H+PbDrydcnzFdDi3da+CneTx/hTG/UYwd5P3L5bwWd72JffHFF/T29nLeeeeRnZ3NeeedN4mlicjp7k9/+hPp6elOF0POcJMP4zA97MjrIr97Dbm2nxsh+uH3uin+8AG+/cbtlvAzQtkuyMPDO7KQe3ngrg+5N7DOnh3kHcmn+/u50Z9hBvLxe2mhjOeveI0H+VGMIF9LS8ztiM3v9/OHP/wBQIEschZQGEsqnDvZBfSE1TBzWfPyhzyQl0eseurtT7zGU7lA7lN0X240Yxuhl8ua7m7WWMM0EN72azbD+3aeePkpMzR72FG2Dehj79KnuHzPw/DEa+SGlfMpuoGen1oWVd5irs+67K5x7wtrEINRS/7444+59NJLFcgiIhLTpMM49/st5OR9mwcwAzlzCU91L0ly5jV0dxtBuaOgmzW5H7P3X7ax9ntroqe11HL/eu8DfPtheOLlbrozjY97fppH2XajFt2da/QrP1zeQrfZDB1VTqvtZeRtj1zhWvLHsR9OnDgRFsQBH330EQCzZs0ax9JERORsMukwhlzWdLewI+9H7L3lKZYM7SCvLHav8e1PRPTTlm0zaqa50PPTb/NwlvFzlKEPef1bl7P0p3mU0UJ3d6jm/PAvzBD+vrVMZi07ryxY87WW83LrslNQM541a5YCV0REJiQFYfLEAGgAABzJSURBVAxG+D1l/DgEfOsJ24FQH+99gB8FXvTswBi31U0uH7P3oTwjiMNC8VJcC2/n4bI8tmEE+f+9pJvuwPS/CE25zZwmzLee4LXubks5QuXsAXIuvxQ+JCU1YxERkYlK0QCuHnbkPc/lL4+zZmzDCOwH405jHQgWc2CX3ejo4HsufA/9CGqeYknmOJYZxx/+8Ad+//vf2352/vnna4CHyJeUBnBJKqSmZtzTxbZv3c5rmSRdM45/O9Lr5D1s83aM5YaWHT/Ee45s4/aFr3HpoI/Xf5HDvU+CEcI/gpoHA1Ox46EPKR7nLU7nnXceIyMjtvcXZ2dnj2NJIiJytklJGAdDLvDGLx7m27ZpCrc/YYTepUueImycl1lrbVn4Os9zOzkPfxjnFqlovzv+OjkFT8WZ4mM+7L+d25deysdvvc7r37qdBwF62nl94YM8lQnGIz5yWfO9LvJ+2hPRZB7feeedR3p6elQgZ2dn81d/9VdJL0dERM4+KQjjHrq2r+XebjOKc9fQ3W0zGjrm7JZBXE/m8vHe1wEXa7ovZ0deHmW29/teypInu4GIGvZ2S7+xubygQG24Zi8/evh11rY8xaX0sONfLufBJy8F6zO/ctfQcuQB9g5am7ETCwzgCoygvuqqqxTEIiKS0KTD+OO9z7Ot/F7WELq9KKFvPUF91sPUbMcITdvwNkdEm4+/LDPne+17H/Jta5/0t57gte6nopuUAyOpzfuQXW+9zuvl9/IUH0J5C2tyoeenz3N5zVNcGrggYC0tT5prX3o7z+/pYck4ascQfguT+pFERCQZKX4Cl4jI2UUDuCQV9FebREREHKYwFhERcZjCWERExGEKYxEREYcpjEVERBymMBYREXGYwlhERMRhCmMRERGHKYxFREQcpjAWERFxmMJYRETEYQpjERERhymMRUREHKYwFhERcZjCWERExGEJ/56xiIiITK1zE01w8YzM6SiHiMgZ6ZOTgzpPyqSpmVpERMRhCmMRERGHKYxFREQcpjAWERFxmMJYRETEYQpjERERhymMRUREHKYwFhERcZjCWERExGEKYxEREYcpjEVERBymMBYREXGYwlhERMRhCmMRERGHKYxFREQcpjAWERFxmMJYRETEYSkOYz97VrXTH/l2fzv3rXKb/yI+D/vMzX2r6jk8ksSq4i0zZtmSXHZK+Nmzys2exAULGfGydTz7YNpFbFN/O/dt8fLJFKzpk8P13Nfun4Iln0aC37f5L8nt/eRw/fh/X+Ia5fCWcR6rIpJS56ZqQZ8crmd9kw8o5RHrByNetm4aoHyLh3np5nRbvGxZX8jFwCfDA7C8jmeLs5NfWYJlnh6yWbrTM47pRzm8s4mrN3lYlzVlhZqk8W6TxPNJ3zB5WzysSwfjQqeWPTd6WBr3+/dzcLCIZ3fWGC/727lvfTsZO4tJ2WEz4mXr+mG+k8plikhcKakZf3K4nvW+fLZsqSQv8rO+LrqXFzEv3Xh98bwilnd18a7laj4vM2N860timWeeYU52uZiR7nQ5ZLpcPK84eAxDNl9bDr8dHk0wVzZLrReuWQspz2/l16rVipzRUlIzvnheDc/OA0a8EZ+M8q7Px/I7ayzvZfO15T5e7Rtl3rw0hgd9kFk2jrUlXmZcI162rm+iG4BSHgm7+jdqJy+Yr/Iqm1k3Lw2jGa+Ck65KftvURHd+pVkLN97f3hWY30X5lhrzBGvOc6dZ0+lv575XMnjE1cXjTT5j8kCLgLVM691sDy4/vDzR5bUXaqUwV7MpUNsKlKkONgWWay1zaJrANuVVVnJ1UxczttQwLz1imyL1t3Pfptbgy9D+iydiH5rbHlqkm8dfiF5ef7ubVzOty/ezZ1WHWc7Aa8u+C+5Tc/8MFvEItbbLjv7c2O8Zlv0auW2R+zy5bbcY8fLqC6V8Z+c45gGCF3Gr4k0TuW8IHo9RrUmW77B7Vat5jGbYH/8T+r5FxE7Kmqkno7upgvuajJ9DwTEVfGx/JZ8tOz2sM0Pg8fa5ZhO5cfJmk4dnszBft3A4J3QCe8GHOS8EQ2R2Hc+uN2sqiZoMu5p41dVsNDGOeNm6PtAsWci6nTNtw+S3lc08aw2JhM3xo7w7mM+WnTWh4HnFywLLPC9s6uWRnR6exQy7nV5usFxcdLuaeXZ9KPQex0V5Enu3/x14ZKfH2Pb+du7b9Ab98+JdPNis77Dlgu6FWn69ycOzxYHlhX8f8QvTG/Fd1nKwvzB0bCVatuXz/nY3j69qJa/S/O4its0I4jk8srPG3FY/e1ZVsCcj0bFsuRDJr2TLzuJxd7N8criDF/Lz2ZKqFpWsYp7dkhHRTG3U1sOP/4l83yISi+OjqbOKPTy70/y3pZLfbprKgSQuylcFQimNeXeWwrEhYwBSfy8v5FeyIHgmyWZBJXT3hZoNl99pCcGRXrq7SnlkPE2G+ZWsDtQc0gv5TrxmSbM8qy01jeSa49OYVxwq58U5+eR1DTNsmWL5ptAJM2tBZehzc5u+Y1lnVnEdy+OtziKr2HIizprLcgYYjlfW/jfYTvg2Zs2z7OPldaEwy1pIeb6Pk8l2RWQVW4LQpgk40bItn2fdWApY9kvYtpktNZusIZTNgkoXL7yTaEBWGvPWm8f+KnhunAP+ghcB0zRWIuz4ZwLft4jE5FjN+OoMm+as9EJWV3ax/h0/S7PGMaAr3jKT9MnwAHS1sn5VU/gHy4sAmz7tkWG68zNYHfZmGhmzoXt4lMlWDz4ZHoDZcyNOshnMCIRGvJpQRPMhlPKdZFZqu03jENYFACSoUdtvY6pEdiFAXuUEF5WeQV6+7VFArGbiizPmgG+IT8hObvvSC1m3aZj7Ilox7FlaZXaO//ckZcb5fYtIbFMcxtZwCvXt/foFFzMWxJ4r/oCuiS0zkYsz5sDyohijum1qr+kZwRpl5InTuChINBAnifLYnswTDPIK9AXu9BjzmSNjk2K3TSND/BaYkWje4AjcQDOm0U8Zz7gDK2mhvu1n1xvv9Le7eTWl6wiIc4E0e+YUXGhYts3J9uAJfN8iEtuUN1NnLaiEppbgvZCBPq4bAoOcDlua8ka8PNcEeTnxa7jxlznRgs5l+Qu1yTcTps8lL7+Vx633hva38/gLpXwtFSfJrLks72riucOhUP/kcAvbib+dRm0zFAKf9HVZai4JpM/kalp51bLO/oNNyc1v1qqDl1H9vZaBZzHYbGP/4eTuW87IdNHt6w1O299uHegWOTLdz68TFmai0rjB5eKFTdZ73f3s2dTK8hvj1VpHOdxu3VZjnjxXgpYCs2l/wbiOMeOCIdTlYqxrUibyfYtITFPfTB1oflvvZjuEjWoFwFcbHLwVPbJ3gsuckGyWbqlk63o39wXfi1eeNOatb4YtFdwXbKJMbrRz0uXZWceeVaHBbcls58Xzili+qpb7AqOEl5dG3W42nnUu31TH8heSqPFkLaScilAz//LSJPqabbZxeR3PQsJAvnheGeW+0PrCy2n0968PHB+UsjzZju8JuHheDVuoZ/0qd/C9xAMR08igKaxbJOnRyF1NNt0p8e7VT2Peqkq61wf2cymPbCqFV2JMnl7Id5Ybg9YCo6mjTOj7FpFYzhkbGxuL9eHg4CAXz8iczvLIacfmthgRCfrkpM6TMnmnxa1NtqIGh5ji1gAi78s1paTmfDo5k7bzTCpr6kXefxwQt+Y8oWM//J7skCRbm0TEUaoZSwKqGYvEo5qxpILCWERkEhTGkgqOP/RDRETkbKcwFhERcZjCWERExGEKYxEREYcpjEVERBymMBYREXGYwlhERMRhCmMRERGHKYxFREQcpjAWERFxmMJYRETEYQpjERERhymMRUREHKYwFhERcVjCP6EoIiIiU+vcRBNkZurvdIqIxDI4OKjzpEyamqlFREQcpjAWERFxmMJYRETEYQpjERERhymMRUREHKYwFhERcZjCWERExGEKYxEREYcpjEVERBymMBYREXGYwlhERMRhCmMRERGHKYxFREQcpjAWERFxmMJYRETEYQpjERERhymMRUREHJbiMPbT7m7HH/l2fztut9v8F/F52Gdu3O56vCPJr3G0s576ztEkyza+ZU+On3a3m/b+ccwy4qV+Avsger0TmX8C5T1djXipb/CSzFER2O7g8dcWdfSOX3877qTXLyIC56ZqQaOd9VQ0+oBS6qwfjHipf3SAykYPhenmdA1emqsLSQNGhwagpA7PsuxxrtFPu7uWVsBVVZaqzUihbIo9nnFMP4r3+SbmPOahJmvKChVHcuUd7aynYrBoAt/X9PC3uandDRRUksxRMdrZS0ajB086wCjehgrqO5upmZ+WsjKd7vtMRJyXkprxaGc9Fb58mhsrcUV+9l4XvpIiCtON12nziyg90kWvpebmyswY5xqNIOYxD3Ulkyn56WSY4SMuMtKdLseZy9/mppY6PI+VJj1P2vzi4LEJaRTeVYrP16tarYhMq5SEcdr8GjxmTTfcKL0+H6W51hpBNnNLfHS9Z5zuhgd9E1ijUYsrnkgNMtgUbNNkHtFkGWr+HsXb4Ka905w32ARpvG/fxG7OE2j2NZsu/Z310U2iI17q3bW04qOpyrr8iCZUuy6ARMxugEA5Rq3rD2uWjiivDX+b22j92F0bMa/t1GZzuXUbIpvP4+2/yLIm3vbsZZ5J1z5HhwZg9kybYzmiXGHN2bH3nf0+M/dNZ7vlOIjcFxP4rkXkjJWyZurJ8DVW4G40fi59bIIhm9yaaHo5n2aPhxqzSbK2ba55Ag/Vtj1ZmK9b8F5fE6w5tfow54VAk2bT7Do81WYA9LfjrmpnpqcY20g40kSHqxmPp8YI4Kpa2nM9FGcVUuOZSbu7g4zGwPqM8gxUNeMxm0wjm/gT6m/HbekigFF6B/Np9tQYXQSd9VS87GVhksvLXuahOXM8Ta4+mqrmUOfx4InaPwn234iXlsY51HlqjH3Z75+GcPLzRqOP0sdqUrbE2PvMR9NgEZ5A18CIl2FXM57qNALHVkfnwpQ2l4vI6cvx0dTZyzx4POa/xkoGHp3KQUQuKu8NBI/RJMmxIaMW2t9La0ElC4MXAtksrCJYgwcovcsSWiO9dB0ppc56gs1aSGVBK72xyl9QSVng5JpeSFEJDAzFaBA1y1NmORnbNfHHFOyrrwlvhl0W2oa06/NxHRlmOInFTYyLykbLhYl1/yS1/wYYCmxrVrb9BU7KhC5+pu5i0MpF5W2WLUovpDj4Xacx1+XCNzh134yInF4cqxnPmWlzxZ9eSFlVFxU9foqzpnewy+jQABxppcLdFP5BSRFg06c9MoyvICNikFAaM2dD19AoTPKEbjSXzo2osWaQUeBjeASI27fso+lRH6WPeSxBbOpvx/1oq+WNUoomV9RxMPbPMCSx/wqpaYT6KjdNTHGLiaUFodjBPvvg4LOAkun7ZkTEWVMcxtaTayBW/PTudpFxW+y5xj+ga/LSZs6BkljNrza11/SMYK0y8rLCuNCY3BCgtJlzwDfEKNkRy09mkJeLysfy6XrUTbs1xPrbcb+cQbPHYyxzxEt91XTWvkYZOgbkksT+A9ILqfEUErztaioCObhPipNr+p8i/jY3HZnNeDyWLolBBwskItNqypups2+rhMaW4MCc0c4OWgvymRu4laTT0hM44qWlEfKvd+C0mDWX0t21yTeRp88lv6CVWutAnv52aneXMjcVgZE1l9IjTbRY7qEe7WyhicC+S1S+Qmoimv0jByeNvtfFRIbPJc9H05uh/WOU3+wKSLT/+tst30UGGQVTUb5RvC+3hnc/JCFt5hzY3Rvswx7tbKHpyOTKMXTM2lpkDHwUkbPH1DdTpxdS89gwbrO5kYLK8AFIvtrg4C2jj7Emuml1WmRT3FhJfZUbd/C9eOVJo7C6GRoqcAdnKKUu1uCtiZTHU0e7OzS4LWrfJRLY94+6aS2pw7OsiFJ3LW6zKdRVUhp1K1oiafNDy0jcdOyiMrMXt7vWfF1KncfSZx9v/6VnMGD5LlxVzVN2/3Xro25aw95JcBxmFVNX4qbW3WqWrY7KAl/MvvfE+8wYv+AOlsNFacl4vxkROZOdMzY2Nhbrw8HBQTIzM6ezPPKl4Y8YHS7y5aTzpKTCaXFrk60RL/VVTdHNqHGf1hV6KleY8dYoT3tTu51RA4kA29pi3O9okoWwL9mEtjv0dLhwcWv2Ezr+REQmRjVjmSKqGcvZQedJSQWFsYjIJOg8Kang+EM/REREznYKYxEREYcpjEVERBymMBYREXGYwlhERMRhCmMRERGHKYxFREQcpjAWERFxmMJYRETEYQpjERERhymMRUREHKYwFhERcZjCWERExGEKYxEREYcl/BOKIiIiMrXOTTSB/k6niEhs+nvGkgpqphYREXGYwlhERMRhCmMRERGHKYxFREQcpjAWERFxmMJYRETEYQpjERERhymMRUREHKYwFhERcZjCWERExGEKYxEREYcpjEVERBymMBYREXGYwlhERMRhCmMRERGHKYxFREQcpjAWERFx2LmpXZyfdncvcz3FZFvf7m/H/Wir+aKUOuvnYZ8BuKhsrKEwPd56RvE2VNB0xHxZUElzdSFpCcvWQUbCZaeKn3Z3LTzmoTgryVlGvNRXNeFLah/EW+90bqdMO/M4mZPo2Ir63QqI+B0cp9HOeioGi/Asm+gSRCRSysJ4tLOeikYfUEqd9YMRL/WPDlDZ6KEw3ZyuwRsMz9GhASipG98vdv8bDN/lwVNtvPS3ualom3manRyyKfZ4xjH9KN7njRNsTbLhLactf5ubjsxmaubHv0Sc0LLfbMIHzEk0YVYxHk+xTbkWTjiIbUqjiz+RFEhJM/VoZz0VvnyaGytxRX72Xhe+kqLgL2ra/CJKj3TROxKaxpWZMb4VZhWH1Qiyb6vEtbsX/4RKf7oYZviIiwyd0CSeES8dx0opLZjgvLtLKZqCCwQRmZyUhHHa/Bo8ts3Eo/T6fJTmWq/Ds5lb4qPrvVEAhgd9ky/AyDC+ggySivQRL/VuN263G7e7PSLA/bQHP3NT3zka3A5vg5v2TnPeBi+jlvfdwXnq8QYvMsx5+s2X/e24G7z4O+tD07f5LWWqpRUfTVXW5YeXJ7q8yYhYRnDZxkWUu82Pv81um+OJ2O42S6mittPcJ/3t9tMT8VnYPvTT7q7H25/sdxaY1pjG3xa9Pf42c/0joemCW2Xuj7DXln0X/C7jlsvYN7W7wddYEb49YdsZsR+SKE+w9eSuhckd6xH8bzZBVeJacfR+M7d3JGLCGMetUW6veYwE5ot9HIoIMBbHRx99FO/jaB8fGvvxyrax94NvnBo79MzKsTZ/+GTvv7hy7MfeU8GfV64M/YucNjFjHYHlxfb+WNvKlWMrnzk0dsoy38oX3w/7PLT+98faVv547NDHlmmD89rNPzY25m8bWxnc/oht97eNrVxpKefHh8Z+HHN9ofJYt+uU98cRZYi1nZbl+Nsi1hFa5ynvj8P3ub9tbGVYGexE7u/42xlYR3A/fXxo7McR5VtpPWb8bZZtHO93Zn4eWF7YsiL2TdSxapY1uOxTY4deDM0bvu8TlSv8GLfftxH7MWF5rK/tf6/isll+LFFljzimwssVedwGvvOI4yjOcXimG/d5UsSG46Ops5d58HjMf42VDDxqrYEkYg7kml2XZN+ci8p7AzX4NArvKoVjQ8YVen8vrQWVLAw2f2ezsIpgDR6g9C5L7X+kl64jpdRZ+6mzFlJZ0EpvrPIXVFIWKGd6IUUlMDAUo35glqfMsl12TfwJhTXpZzM3cp0ldaHPsxZSWeBjON7yze0ONXUa+7G1x1KDs5Q77fp8XLiovM3cT+lzybesw9/TistaW8taSCXWbRzPd5ZG4b2WrpKshVTSxBvB1oleWgvymZtUV0AahctC33fa9fm4jgwzHPw8TrlsGNtZZulXNebx+XqTqyGOeGlpnBN+vI3D6HtdSdWKU8bSNQUkPg5FznIpHk2dvDkzbcIzvZCyqi4qevwUZyU4bVhGlHpSMOBpdGgAjrRS4W4K/6CkCOwaBc2m8bKwN9OYORu6hkZhkmUaHRqA2XMjmv4zyAgEWdJ9yxEjzwFX1SQKNjKMj1Z87ohRugWVjJId3VWRPpM5zGGmbXlHGToGvt0VuBvDPym9i4TbaL+PrNKY63IFjyd/Tyuld3kSjLq3iBqNXEpRsvOGl5ShYzAnN2LN6RnBgE94J4B5rE8wiun1Qf69TvYVp/g4FPmSmeIwtoZT4ETgp3e3i4zbYs+VcEDXiJf6qmGKPBM9OdmUdOYcKIl1u4bNFXycE6lxoTG5q/60mXPAN2QTcOMZ5GWcACNHnndMpmDpGbgKKilLeCtZMozjo/Sucdz+FelYxD4aGcYHwdBMuz4fV2Mv/mXQu7uUucuSXG5/O+6XM2j2mOFtHnMTY/d7YEpmrEN/L60Aj7oJuwQ64qY1mTsRRnrpIp8yxwYHTsFxKPIlM+XN1Nm3VUJjS3Dwx2hnh6WpcBRvZ/gglpZGyL8+QT0hyYEo45I1l9Ldtck3kafPJb+gldqIwUu1u0uZm4pbk7LmUnqkiRbLQJrRzhaaSLaZFaJHaPvp3T3JcqXPJZ/wck1Gdm4prY9OZGBaoOnY0gzNKN6XI2rs6YUUlbTS0dDBgPWYSZ/JHCxdCiNeWhpDgwmNWvfMYMiPvtfFZIYaZueW4rP8HgQGY+Eya/bxypNVHOrK8XjweJqpLIDSxzxJ3c43+l4XPsu2JJKR6QprPve31WJ3t3LypuA4FPmSmfpm6vRCah4bxl3lpgmiH9Dhq7U0USb/sAtfo03T5ngesBElm+LGSuqr3LiD78UrTxqF1c3QUIE7OMPkHqYQVR5PHe1uy3Ym9XCT8GUsrIKKwL6nlNKSyZYrjcLqOobd4ft/wvs+q5jmqnoqQjsx+e0MHFvBGqOLyscqcR0Jr8Fm55bi2z1AZVgzbTbFj5WG5i2opK7KhW/Q3Mr5RZS6a3GboeEqKY26bS+e7NsqoaoCd6N5DGUV43msPfR7ALiqrPchxy/PZAwP+ijNrUl6+rT5ZVT6KoJdNqWP1VG6O1Y91nKMmd9b3GmMJabgOBT5cjlnbGxsLNaHg4ODZGZmTmd5RCYn0LxsDXO790RSROdJSQXHBnAlFHw0ZIS4fWTGIyijmtTGXaM83U39dvrbjHtlw03mMZ3TwU/7o624qpot+8B4r/SxcQzcOqNM7FgIPTEv3ORal0RkolQzljNYdBBZm34DFxThzcEiqaXzpKSCwlhEZBJ0npRUcPyhHyIiImc7hbGIiIjDFMYiIiIOUxiLiIg4TGEsIiLiMIWxiIiIwxTGIiIiDlMYi4iIOExhLCIi4jCFsYiIiMMUxiIiIg5TGIuIiDhMYSwiIuIwhbGIiIjDEv4JRREREZla58b78Ktf/ep0lUNEROSspWZqERERhymMRUREHKYwFhERcZjCWERExGGTDuOXXnopFeUQERE5a00qjBXEIiIikzfhMFYQi4iIpMaEwlhBLCIikjoTCuPvfve7qS6HiIjIWWvCzdQKZBERkdSY1AAuBbKIiMjkxf1DEZ9++ul0lkVEROSspId+iIiIOExhLCIi4jCFsYiIiMMUxiIiIg6LO4BLREREpp5qxiIiIg5TGIuIiDhMYSwiIuIwhbGIiIjDFMYiIiIOUxiLiIg4TGEsIiLiMIWxiIiIwxTGIiIiDlMYi4iIOExhLCIi4jCFsYiIiMMUxiIiIg5TGIuIiDhMYSwiIuIwhbGIiIjDFMYiIiIOUxiLiIg4TGEsIiLiMIWxiIiIwxTGIiIiDlMYi4iIOOz/ByEDts7J52k4AAAAAElFTkSuQmCC;" vertex="1" parent="l1tBA6Kivxf9OA4HflHP-168">
          <mxGeometry x="7.159999999999968" y="30" width="375.67" height="245" as="geometry" />
        </mxCell>
        <mxCell id="l1tBA6Kivxf9OA4HflHP-180" value="" style="shape=flexArrow;endArrow=classic;html=1;rounded=0;" edge="1" parent="l1tBA6Kivxf9OA4HflHP-176">
          <mxGeometry width="50" height="50" relative="1" as="geometry">
            <mxPoint x="1760" y="160" as="sourcePoint" />
            <mxPoint x="1980" y="320" as="targetPoint" />
          </mxGeometry>
        </mxCell>
        <mxCell id="l1tBA6Kivxf9OA4HflHP-181" value="最终呈现" style="text;html=1;align=center;verticalAlign=middle;resizable=0;points=[];autosize=1;strokeColor=none;fillColor=none;" vertex="1" parent="l1tBA6Kivxf9OA4HflHP-176">
          <mxGeometry x="1850" y="200" width="70" height="30" as="geometry" />
        </mxCell>
        <mxCell id="l1tBA6Kivxf9OA4HflHP-179" value="" style="shape=flexArrow;endArrow=classic;html=1;rounded=0;" edge="1" parent="1">
          <mxGeometry width="50" height="50" relative="1" as="geometry">
            <mxPoint x="690" y="1480" as="sourcePoint" />
            <mxPoint x="690" y="1340" as="targetPoint" />
          </mxGeometry>
        </mxCell>
      </root>
    </mxGraphModel>
  </diagram>
</mxfile>
